<svg xmlns="http://www.w3.org/2000/svg" width="60" height="60" viewBox="0 0 60 60">
        <path fill="#5e5e5e" d="M59.393,13.477,36.026.645a1.173,1.173,0,0,0-1.128,0L26.09,5.481a1.175,1.175,0,0,0-.5.276L11.53,13.477a1.171,1.171,0,0,0-.608,1.027V30.023A15.612,15.612,0,0,0,1.583,51.752a1.172,1.172,0,0,0,2.106-1.029,13.249,13.249,0,1,1,6.09,6.09,1.172,1.172,0,0,0-1.029,2.106,15.622,15.622,0,0,0,21.1-7.666l5.05,2.773a1.172,1.172,0,0,0,1.128,0L59.393,41.194A1.172,1.172,0,0,0,60,40.167V32.023a1.172,1.172,0,1,0-2.344,0v7.451L36.637,51.016V28.027l6.937-3.81v6.039a1.172,1.172,0,0,0,1.737,1.027l5.007-2.756a1.171,1.171,0,0,0,.607-1.026v-7.32l6.732-3.7v6.164a1.172,1.172,0,0,0,2.344,0V14.5a1.172,1.172,0,0,0-.608-1.027ZM35.462,3.009,56.395,14.5l-6.6,3.626L28.858,6.635Zm0,22.989L14.528,14.5l6.845-3.759L42.307,22.239Zm9.28-5.1L23.809,9.408l2.615-1.436L47.357,19.467ZM26.623,33.88A15.491,15.491,0,0,0,15.6,29.313a15.807,15.807,0,0,0-2.331.172v-13L34.294,28.031V51.02l-3.65-2a15.668,15.668,0,0,0,.545-4.111A15.49,15.49,0,0,0,26.623,33.88Zm21.959-7.072-2.664,1.466V22.93l2.664-1.463Zm0,0" transform="translate(-0.001 -0.501)"></path>
        <path fill="#5e5e5e" d="M493.172,219.441a1.172,1.172,0,1,0,.829.343A1.181,1.181,0,0,0,493.172,219.441Zm0,0" transform="translate(-434.344 -193.784)"></path>
        <path fill="#5e5e5e" d="M69.444,329.389a1.172,1.172,0,0,0,.829-2l-.812-.812h6.926a3.047,3.047,0,1,1,0,6.094h-4.1a1.172,1.172,0,1,0,0,2.343h4.1a5.39,5.39,0,1,0,0-10.78H69.461l.812-.812a1.172,1.172,0,1,0-1.657-1.658L65.8,324.576a1.173,1.173,0,0,0,0,1.658l2.813,2.812A1.168,1.168,0,0,0,69.444,329.389Zm0,0" transform="translate(-57.789 -283.813)"></path>
        <path fill="#5e5e5e" d="M37.241,458.778a1.166,1.166,0,0,1-.9-.417l0,0a1.17,1.17,0,1,1,.9.42Zm0,0" transform="translate(-31.841 -403.002)"></path>
      </svg>