<svg xmlns="http://www.w3.org/2000/svg" width="60" height="37.954" viewBox="0 0 60 37.954">
        <g transform="translate(0 -94.062)">
          <g transform="translate(0 94.062)">
            <g transform="translate(0 0)">
              <path fill="#5e5e5e" d="M55.8,110.152l-1.554-6.215a.94.94,0,0,0,.744-.919v-1a3.95,3.95,0,0,0-3.946-3.946H43.967V96a1.944,1.944,0,0,0-1.942-1.942H5.95A1.944,1.944,0,0,0,4.008,96v17.036a.939.939,0,0,0,1.879,0V96a.063.063,0,0,1,.063-.063H42.025a.063.063,0,0,1,.063.063v17.036a.939.939,0,0,0,1.879,0v-1.065H55.054a3.074,3.074,0,0,1,2.919,2.129H55.052a.94.94,0,0,0-.939.939v2a2.947,2.947,0,0,0,2.944,2.944h1.065v4.134H55.665a5.948,5.948,0,0,0-11.246,0h-.452v-7.077a.939.939,0,0,0-1.879,0v7.077H22.6a5.948,5.948,0,0,0-11.246,0H5.95a.063.063,0,0,1-.063-.063V122H9.958a.939.939,0,0,0,0-1.879H.939a.939.939,0,0,0,0,1.879H4.008v2.067A1.944,1.944,0,0,0,5.95,126h5.075c0,.021,0,.042,0,.063a5.95,5.95,0,0,0,11.9,0c0-.021,0-.042,0-.063H44.093c0,.021,0,.042,0,.063a5.95,5.95,0,0,0,11.9,0c0-.021,0-.042,0-.063h3.071a.94.94,0,0,0,.939-.939V115.043A4.955,4.955,0,0,0,55.8,110.152Zm-11.833-10.2h7.077a2.069,2.069,0,0,1,2.067,2.067v.063H43.967Zm0,10.146v-6.138h8.348l1.534,6.138ZM16.973,130.137a4.071,4.071,0,1,1,4.071-4.071A4.076,4.076,0,0,1,16.973,130.137Zm33.069,0a4.071,4.071,0,1,1,4.071-4.071A4.076,4.076,0,0,1,50.042,130.137Zm8.079-12.025H57.056a1.066,1.066,0,0,1-1.065-1.065v-1.065h2.129v2.13Z" transform="translate(0 -94.062)"></path>
            </g>
          </g>
          <g transform="translate(15.031 124.125)">
            <g transform="translate(0 0)">
              <path fill="#5e5e5e" d="M130.209,350.6a1.942,1.942,0,1,0,1.942,1.942A1.944,1.944,0,0,0,130.209,350.6Z" transform="translate(-128.267 -350.597)"></path>
            </g>
          </g>
          <g transform="translate(48.1 124.125)">
            <g transform="translate(0 0)">
              <path fill="#5e5e5e" d="M412.4,350.6a1.942,1.942,0,1,0,1.942,1.942A1.944,1.944,0,0,0,412.4,350.6Z" transform="translate(-410.455 -350.597)"></path>
            </g>
          </g>
          <g transform="translate(24.05 120.116)">
            <g transform="translate(0 0)">
              <path fill="#5e5e5e" d="M220.2,316.393H206.167a.939.939,0,1,0,0,1.879H220.2a.939.939,0,1,0,0-1.879Z" transform="translate(-205.227 -316.393)"></path>
            </g>
          </g>
          <g transform="translate(2.004 116.108)">
            <path fill="#5e5e5e" d="M30.067,282.188H18.041a.939.939,0,0,0,0,1.879H30.067a.939.939,0,0,0,0-1.879Z" transform="translate(-17.102 -282.188)"></path>
          </g>
          <g transform="translate(17.036 103.081)">
            <g transform="translate(0 0)">
              <path fill="#5e5e5e" d="M161,171.3a.939.939,0,0,0-1.329,0l-8.355,8.354-4.346-4.346a.939.939,0,0,0-1.329,1.329l5.01,5.01a.939.939,0,0,0,1.328,0L161,172.626A.94.94,0,0,0,161,171.3Z" transform="translate(-145.37 -171.023)"></path>
            </g>
          </g>
        </g>
      </svg>