<svg xmlns="http://www.w3.org/2000/svg" width="60" height="65.356" viewBox="0 0 60 65.356">
        <path fill="#5e5e5e" d="M128,46.348a17.778,17.778,0,1,0,27.608-14.8l1.132-1.96,1.925,1.111,1.111-1.924L154,25.436l-1.111,1.924,1.925,1.111-1.13,1.957a17.75,17.75,0,0,0-15.816,0l-1.13-1.957,1.925-1.111-1.111-1.924-5.774,3.333,1.111,1.924,1.925-1.111,1.132,1.96A17.775,17.775,0,0,0,128,46.348Zm33.333,0a15.556,15.556,0,1,1-15.556-15.556A15.556,15.556,0,0,1,161.333,46.348Z" transform="translate(-115.778 -25.436)"></path>
        <path fill="#5e5e5e" d="M248,80h2.222v2.222H248Z" transform="translate(-219.111 -72.422)"></path>
        <path fill="#5e5e5e" d="M0,0H2.222V2.222H0Z" transform="matrix(0.866, -0.5, 0.5, 0.866, 22.37, 9.92)"></path>
        <path fill="#5e5e5e" d="M0,0H2.222V2.222H0Z" transform="matrix(0.5, -0.866, 0.866, 0.5, 17.897, 15.208)"></path>
        <path fill="#5e5e5e" d="M160,168h2.222v2.222H160Z" transform="translate(-143.333 -148.199)"></path>
        <path fill="#5e5e5e" d="M0,0H2.222V2.222H0Z" transform="matrix(0.866, -0.5, 0.5, 0.866, 17.897, 26.615)"></path>
        <path fill="#5e5e5e" d="M0,0H2.222V2.222H0Z" transform="matrix(0.5, -0.866, 0.866, 0.5, 22.37, 31.904)"></path>
        <path fill="#5e5e5e" d="M248,256h2.222v2.222H248Z" transform="translate(-219.111 -223.977)"></path>
        <path fill="#5e5e5e" d="M0,0H2.222V2.222H0Z" transform="matrix(0.866, -0.5, 0.5, 0.866, 34.592, 31.089)"></path>
        <path fill="#5e5e5e" d="M0,0H2.222V2.222H0Z" transform="matrix(0.5, -0.866, 0.866, 0.5, 39.066, 27.431)"></path>
        <path fill="#5e5e5e" d="M336,168h2.222v2.222H336Z" transform="translate(-294.889 -148.199)"></path>
        <path fill="#5e5e5e" d="M0,0H2.222V2.222H0Z" transform="matrix(0.866, -0.5, 0.5, 0.866, 39.066, 14.393)"></path>
        <path fill="#5e5e5e" d="M0,0H2.222V2.222H0Z" transform="matrix(0.5, -0.866, 0.866, 0.5, 34.593, 10.735)"></path>
        <path fill="#5e5e5e" d="M249.111,122H258v-2.222h-7.778V112H248v8.889A1.111,1.111,0,0,0,249.111,122Z" transform="translate(-219.111 -99.977)"></path>
        <path fill="#5e5e5e" d="M99.216,183.4l-8.889-2.735-.654,2.124,5.438,1.673-6.548,2.015.654,2.124,8.562-2.634v27.675l-26.667,8.205V200.014H68.889v21.829l-26.667-8.205V185.963l8.562,2.635.654-2.124-6.549-2.015,5.437-1.673-.654-2.124L40.784,183.4A1.111,1.111,0,0,0,40,184.459v30a1.111,1.111,0,0,0,.784,1.062l28.889,8.889a1.111,1.111,0,0,0,.654,0l28.889-8.889a1.111,1.111,0,0,0,.784-1.062v-30a1.111,1.111,0,0,0-.784-1.062Z" transform="translate(-40 -159.103)"></path>
        <path fill="#5e5e5e" d="M104.667,283.333a1.111,1.111,0,0,0,1.111-1.111v-5.556a1.111,1.111,0,0,0-.784-1.062l-15.556-4.786A1.111,1.111,0,0,0,88,271.88v5.556a1.111,1.111,0,0,0,.784,1.062l15.556,4.786A1.109,1.109,0,0,0,104.667,283.333Zm-1.111-2.615-13.333-4.1v-3.231l13.333,4.1Z" transform="translate(-81.333 -236.695)"></path>
        <path fill="#5e5e5e" d="M313.327,270.986a1.111,1.111,0,0,0-.987-.168L296.784,275.6a1.111,1.111,0,0,0-.784,1.062v5.556a1.111,1.111,0,0,0,1.438,1.062l15.556-4.786a1.111,1.111,0,0,0,.784-1.062V271.88A1.111,1.111,0,0,0,313.327,270.986Zm-1.771,5.629-13.333,4.1v-3.231l13.333-4.1Z" transform="translate(-260.444 -236.695)"></path>
        <path fill="#5e5e5e" d="M0,0H2.325V2.222H0Z" transform="matrix(0.956, -0.294, 0.294, 0.956, 44.124, 54.31)"></path>
        <path fill="#5e5e5e" d="M0,0H2.325V2.222H0Z" transform="matrix(0.956, -0.294, 0.294, 0.956, 48.57, 52.943)"></path>
        <path fill="#5e5e5e" d="M0,0H2.325V2.222H0Z" transform="matrix(0.956, -0.294, 0.294, 0.956, 53.015, 51.575)"></path>
        <path fill="#5e5e5e" d="M0,0H2.222V2.325H0Z" transform="matrix(0.294, -0.956, 0.956, 0.294, 15.24, 56.41)"></path>
        <path fill="#5e5e5e" d="M0,0H2.222V2.325H0Z" transform="matrix(0.294, -0.956, 0.956, 0.294, 19.684, 57.777)"></path>
        <path fill="#5e5e5e" d="M0,0H2.222V2.325H0Z" transform="matrix(0.294, -0.956, 0.956, 0.294, 24.129, 59.142)"></path>
      </svg>