<svg xmlns="http://www.w3.org/2000/svg" width="24" height="14.999" viewBox="0 0 24 14.999">
    <g transform="translate(0 -54.719)">
      <path fill="#e2574c" d="M14.994,62.218a7.5,7.5,0,1,1-7.5-7.5A7.5,7.5,0,0,1,14.994,62.218Z" transform="translate(0 0)"></path>
      <path fill="#f4b459" d="M116.93,54.719a7.456,7.456,0,0,0-4.48,1.5h.006a6.426,6.426,0,0,1,.727.679l-1.56.025a7.71,7.71,0,0,0-.677.794H113.7a6.969,6.969,0,0,1,.578.747h-3.828a7.472,7.472,0,0,0-.383.748h4.647a6.387,6.387,0,0,1,.323.724h-5.244a7.222,7.222,0,0,0-.209.793h5.673c.056.26.1.5.127.744h-5.913c-.025.247-.038.5-.038.75h5.993a6.588,6.588,0,0,1-.046.75h-5.909q.038.381.113.75h5.663c-.058.243-.126.487-.211.741h-5.261a7.278,7.278,0,0,0,.282.748h4.657a6.833,6.833,0,0,1-.436.747h-3.84a7.3,7.3,0,0,0,.5.753l2.763.041a7.3,7.3,0,0,1-.813.7c.015.012-.44,0-1.336-.016a7.5,7.5,0,1,0,5.383-12.714Z" transform="translate(-100.429 0)"></path>
    </g>
  </svg>