<svg xmlns="http://www.w3.org/2000/svg" width="39.295" height="11.913" viewBox="0 0 39.295 11.913">
    <g transform="translate(0 -175.6)">
      <path fill="#3c58bf" d="M184.8,191.627l2-11.227h3.119l-1.934,11.227Z" transform="translate(-170.392 -4.426)"></path>
      <path fill="#293688" d="M184.8,191.627l2.557-11.227h2.557l-1.934,11.227Z" transform="translate(-170.392 -4.426)"></path>
      <path fill="#3c58bf" d="M257.543,176.1a7.911,7.911,0,0,0-2.869-.5c-3.119,0-5.364,1.559-5.364,3.8,0,1.684,1.559,2.557,2.807,3.119s1.622.936,1.622,1.435c0,.748-1,1.123-1.871,1.123a6.779,6.779,0,0,1-2.994-.624l-.437-.187L248,186.827a10.113,10.113,0,0,0,3.555.624c3.306,0,5.489-1.559,5.489-3.929,0-1.31-.811-2.308-2.682-3.119-1.123-.561-1.809-.873-1.809-1.435,0-.5.561-1,1.809-1a5.721,5.721,0,0,1,2.37.437l.312.125.5-2.433Z" transform="translate(-228.664 0)"></path>
      <path fill="#293688" d="M257.543,176.1a7.911,7.911,0,0,0-2.869-.5c-3.119,0-4.8,1.559-4.8,3.8a3.26,3.26,0,0,0,2.245,3.119c1.247.561,1.622.936,1.622,1.435,0,.748-1,1.123-1.871,1.123a6.779,6.779,0,0,1-2.994-.624l-.437-.187L248,186.827a10.113,10.113,0,0,0,3.555.624c3.306,0,5.489-1.559,5.489-3.929,0-1.31-.811-2.308-2.682-3.119-1.123-.561-1.809-.873-1.809-1.435,0-.5.561-1,1.809-1a5.721,5.721,0,0,1,2.37.437l.312.125.5-2.433Z" transform="translate(-228.664 0)"></path>
      <path fill="#3c58bf" d="M364.7,180.4c-.748,0-1.31.062-1.622.811L358.4,191.627h3.368l.624-1.871h3.992l.374,1.871h2.994l-2.62-11.227Zm-1.435,7.485c.187-.561,1.247-3.306,1.247-3.306s.25-.686.437-1.123l.187,1.06s.624,2.807.748,3.43h-2.62Z" transform="translate(-330.457 -4.426)"></path>
      <path fill="#293688" d="M365.448,180.4c-.748,0-1.31.062-1.622.811L358.4,191.627h3.368l.624-1.871h3.992l.374,1.871h2.994l-2.62-11.227Zm-2.183,7.485c.249-.624,1.247-3.306,1.247-3.306s.25-.686.437-1.123l.187,1.06s.624,2.807.748,3.43h-2.62Z" transform="translate(-330.457 -4.426)"></path>
      <path fill="#3c58bf" d="M55.878,189l-.312-1.622a9.042,9.042,0,0,0-4.366-4.927l2.807,9.98h3.368L62.427,181.2H59.059Z" transform="translate(-47.208 -5.163)"></path>
      <path fill="#293688" d="M55.878,189l-.312-1.622a9.042,9.042,0,0,0-4.366-4.927l2.807,9.98h3.368L62.427,181.2H59.683Z" transform="translate(-47.208 -5.163)"></path>
      <path fill="#ffbc00" d="M0,180.4l.561.125c3.992.936,6.736,3.306,7.8,6.113l-1.123-5.3c-.187-.748-.748-.936-1.435-.936Z" transform="translate(0 -4.426)"></path>
      <path fill="#f7981d" d="M0,180.4H0c3.992.936,7.3,3.368,8.358,6.175L7.3,182.146a1.522,1.522,0,0,0-1.5-1.185Z" transform="translate(0 -4.426)"></path>
      <path fill="#ed7c00" d="M0,180.4H0c3.992.936,7.3,3.368,8.358,6.175l-.748-2.433a2.2,2.2,0,0,0-1.31-1.809Z" transform="translate(0 -4.426)"></path>
      <g transform="translate(4.054 177.222)">
        <path fill="#051244" d="M59.734,202.637l-2.121-2.121-1,2.37-.249-1.559A9.042,9.042,0,0,0,52,196.4l2.807,9.98h3.368Z" transform="translate(-52 -196.4)"></path>
        <path fill="#051244" d="M187.981,291.944,185.3,289.2l-.5,2.744Z" transform="translate(-174.446 -281.965)"></path>
        <path fill="#051244" d="M253.426,274.8h0c.249.249.374.437.312.686,0,.748-1,1.123-1.871,1.123a6.779,6.779,0,0,1-2.994-.624l-.437-.187L248,278.355a10.113,10.113,0,0,0,3.555.624,6.176,6.176,0,0,0,4.553-1.559Z" transform="translate(-232.719 -268.687)"></path>
        <path fill="#051244" d="M364,227.771h2.932l.624-1.871h3.992l.374,1.871h2.994l-1.06-4.553-3.742-3.618.187,1s.624,2.807.748,3.43h-2.62c.249-.624,1.247-3.306,1.247-3.306s.249-.686.437-1.123" transform="translate(-339.675 -217.791)"></path>
      </g>
    </g>
  </svg>