<svg xmlns="http://www.w3.org/2000/svg" width="20" height="16" viewBox="0 0 20 16">
    <g transform="translate(1.547 -12.221)">
      <path fill="#0068c1" d="M175.383,207.353a4.353,4.353,0,0,0,2.806,4.06v-8.124A4.363,4.363,0,0,0,175.383,207.353Z" transform="translate(-173.2 -187.145)"></path>
      <path fill="#0068c1" d="M144.867,155.071a8.679,8.679,0,0,0-5.816-2.237H135.5a7.9,7.9,0,0,0-8.081,8.064,8,8,0,0,0,8.05,7.936h3.622a8.6,8.6,0,0,0,5.793-2.324,7.659,7.659,0,0,0,2.535-5.612A7.82,7.82,0,0,0,144.867,155.071Zm-7.45,11.865a6.4,6.4,0,1,1,4.521-6.116A6.41,6.41,0,0,1,137.417,166.936Z" transform="translate(-128.964 -140.613)"></path>
      <path fill="#0068c1" d="M252.078,203.431c-.108-.052-.218-.1-.331-.144v8.124c.113-.043.223-.092.331-.143a4.337,4.337,0,0,0,0-7.837Z" transform="translate(-243.625 -187.144)"></path>
    </g>
  </svg>