<svg xmlns="http://www.w3.org/2000/svg" width="46.068" height="16.004" viewBox="0 0 46.068 16.004">
    <g transform="translate(42.584 -6.523)">
      <g transform="translate(-42.584 6.523)">
        <path fill="#0668bc" d="M74.59,203.324H76.2l-.8-2.046Z" transform="translate(-70.613 -199.378)"></path>
        <path fill="#0668bc" d="M155.946,286.107v.95h2.7v1.023h-2.7v1.1h3l1.388-1.535-1.315-1.535Z" transform="translate(-143.419 -275.292)"></path>
        <path fill="#0668bc" d="M349.43,201.278l-.877,2.046h1.681Z" transform="translate(-315.784 -199.378)"></path>
        <path fill="#0668bc" d="M214.168,285.406v-4.165l-1.9,2.046Z" transform="translate(-193.822 -270.937)"></path>
        <path fill="#0668bc" d="M244.506,286.765a.738.738,0,0,0-.8-.658h-1.534v1.315h1.608C244.213,287.422,244.506,287.2,244.506,286.765Z" transform="translate(-220.579 -275.292)"></path>
        <path fill="#0668bc" d="M295.667,287.9a.57.57,0,0,0,.22-.511.407.407,0,0,0-.22-.512,1.421,1.421,0,0,0-.584-.073h-1.462v1.169h1.462A1.422,1.422,0,0,0,295.667,287.9Z" transform="translate(-266.625 -275.917)"></path>
        <path fill="#0668bc" d="M76.312,183.2v.877l-.438-.877H72.44v.877L72,183.2H67.324a4.449,4.449,0,0,0-2.046.439V183.2H61.99v.439A2.107,2.107,0,0,0,60.6,183.2H48.837l-.8,1.827-.8-1.827H43.5v.877l-.365-.877H39.921l-1.462,3.434-1.681,3.727-.031.073h3.8l.026-.073.439-1.1h.95l.438,1.169h4.238v-.877l.366.877h2.119l.365-.877v.877H59.651v-1.9H59.8c.146,0,.146,0,.146.219v1.608h5.261v-.438a4.372,4.372,0,0,0,1.973.438h2.193l.438-1.169h1.023l.438,1.169h4.238v-1.1l.658,1.1H79.6V183.2H76.312ZM51.54,189.337H50.371v-4.019l-.073.168v0l-1.7,3.854H47.521l-1.754-4.019v4.019H43.283l-.511-1.1H40.286l-.512,1.1H38.49l2.162-5.115h1.827l2.046,4.9v-4.9h1.936l.034.073h0l.922,2.007.662,1.5.023-.076,1.461-3.507H51.54v5.115h0Zm5.042-4.019h-2.85v.95h2.777v1.023H53.733v1.023h2.85v1.1H52.49v-5.188h4.092v1.1Zm5.212,1.884.007,0a.837.837,0,0,1,.071.087,1.405,1.405,0,0,1,.259.857v.021s0,.007,0,.012,0,0,0,.006c0,.04,0,.081,0,.126v1.023h-1.1v-.585a1.739,1.739,0,0,0-.22-1.023.665.665,0,0,0-.215-.147,1.459,1.459,0,0,0-.662-.072H58.628v1.827H57.386v-5.115h2.777a2.8,2.8,0,0,1,1.461.219,1.235,1.235,0,0,1,.583,1.136,1.452,1.452,0,0,1-.875,1.348A.979.979,0,0,1,61.795,187.2Zm2.461,2.135H63.013v-5.115h1.242Zm14.25,0H76.9l-2.338-3.873v3.215l-.008-.008v.669H73.317v0H72.074l-.438-1.1H69.078l-.438,1.169H67.251a2.2,2.2,0,0,1-2.411-2.557,3,3,0,0,1,.657-2.046,2.3,2.3,0,0,1,1.827-.585h1.169v1.1H67.324a1.347,1.347,0,0,0-.95.292,1.717,1.717,0,0,0-.365,1.169,1.591,1.591,0,0,0,.365,1.242,1.165,1.165,0,0,0,.877.293h.511l1.681-4.019H71.27l2.046,4.9v-4.9h1.827l2.119,3.581v-3.581h1.243v5.042h0Z" transform="translate(-36.748 -183.198)"></path>
        <path fill="#0668bc" d="M247.07,204.4a.392.392,0,0,0,.057-.078.79.79,0,0,0,.1-.551.409.409,0,0,0-.011-.067c0-.006,0-.011,0-.017h0a.41.41,0,0,0-.222-.249,1.431,1.431,0,0,0-.585-.073h-1.462v1.169h1.462a1.424,1.424,0,0,0,.585-.073.277.277,0,0,0,.06-.043h0Z" transform="translate(-223.065 -201.245)"></path>
        <path fill="#0668bc" d="M169.575,269.448a2.8,2.8,0,0,0-.365-1.388v-3.288h0v-.22h-3.519a2.08,2.08,0,0,0-1.009.438v-.438h-3.361a2.321,2.321,0,0,0-1.462.438v-.438h-5.992v.438a2.827,2.827,0,0,0-1.608-.438H148.31v.438a2.776,2.776,0,0,0-1.681-.438h-4.384l-1.023,1.1-.95-1.1H133.7v7.381h6.431l1.057-1.057.916,1.057h4.093v-1.681h.366a4.439,4.439,0,0,0,1.681-.22v1.973h3.288v-1.9h.146c.22,0,.22,0,.22.219v1.681h9.938a2.864,2.864,0,0,0,1.681-.439v.439h3.143a3.282,3.282,0,0,0,1.754-.366,2.454,2.454,0,0,0,1.16-1.97c0-.025.007-.05.009-.076l0,0C169.573,269.543,169.575,269.5,169.575,269.448Zm-23.018-.438h-1.462v1.9h-2.4l-1.4-1.608,0,.005-.068-.079-1.608,1.681h-4.677v-5.115h4.75l1.3,1.421.273.3.037-.038,1.535-1.681H146.7a1.9,1.9,0,0,1,1.912.95,2.067,2.067,0,0,1,.061.511C148.675,268.718,147.652,269.01,146.556,269.01Zm7.307-.073a1.659,1.659,0,0,1,.219.95v1.023h-1.242v-.657a1.631,1.631,0,0,0-.22-1.023c-.146-.219-.438-.219-.877-.219H150.43v1.9h-1.242v-5.188h2.777a2.947,2.947,0,0,1,1.462.219,1.293,1.293,0,0,1,.657,1.169,1.455,1.455,0,0,1-.877,1.389A1.245,1.245,0,0,1,153.864,268.937Zm5.042-2.12h-2.85v.95h2.777v1.023h-2.777v1.023h2.85v1.1h-4.092v-5.188h4.092Zm3.069,4.093h-2.339v-1.1h2.339a.618.618,0,0,0,.512-.146.531.531,0,0,0,0-.731.62.62,0,0,0-.439-.146c-1.169-.073-2.558,0-2.558-1.607,0-.731.438-1.535,1.754-1.535h2.411v1.242h-2.265a1.084,1.084,0,0,0-.512.073c-.146.073-.146.22-.146.366,0,.219.146.292.292.365a.926.926,0,0,0,.438.073h.658a1.86,1.86,0,0,1,1.388.439,1.513,1.513,0,0,1,.366,1.1C163.875,270.4,163.217,270.91,161.975,270.91Zm6.284-.512a2.129,2.129,0,0,1-1.535.512h-2.338v-1.1h2.338a.616.616,0,0,0,.512-.146.53.53,0,0,0,0-.731.618.618,0,0,0-.438-.146c-1.169-.073-2.558,0-2.558-1.607a1.494,1.494,0,0,1,1.377-1.508,2.725,2.725,0,0,1,.377-.027h2.412v1.242h-2.266a1.081,1.081,0,0,0-.511.073.557.557,0,0,0-.147.366c0,.219.073.292.293.365a.924.924,0,0,0,.438.073h.657a2.282,2.282,0,0,1,.782.117,1.574,1.574,0,0,1,1.022,1.155,1.643,1.643,0,0,1,.023.262A1.486,1.486,0,0,1,168.26,270.4Z" transform="translate(-123.507 -256.002)"></path>
      </g>
    </g>
  </svg>