<svg xmlns:dc="http://purl.org/dc/elements/1.1/" xmlns:cc="http://creativecommons.org/ns#" xmlns:rdf="http://www.w3.org/1999/02/22-rdf-syntax-ns#" xmlns:svg="http://www.w3.org/2000/svg" xmlns="http://www.w3.org/2000/svg" viewBox="0 0 297.47867 78.609329" xml:space="preserve" id="svg2" version="1.1"><metadata id="metadata8"><rdf:rdf><cc:work rdf:about=""><dc:format>image/svg+xml</dc:format><dc:type rdf:resource="http://purl.org/dc/dcmitype/StillImage"></dc:type></cc:work></rdf:rdf></metadata><defs id="defs6"><clipPath id="clipPath18" clipPathUnits="userSpaceOnUse"><path id="path16" d="M 0,58.957 H 223.109 V 0 H 0 Z"></path></clipPath></defs><g transform="matrix(1.3333333,0,0,-1.3333333,0,78.609333)" id="g10"><g id="g12"><g clip-path="url(#clipPath18)" id="g14"><g transform="translate(221.4326,44.0044)" id="g20"><path id="path22" style="fill:#ffffff;fill-opacity:1;fill-rule:evenodd;stroke:none" d="m 0,0 c 1.052,1.52 1.67,3.327 1.67,5.267 0,5.338 -4.614,9.679 -10.287,9.679 -2.169,0 -4.178,-0.635 -5.837,-1.715 -1.11,1.059 -2.6,1.715 -4.251,1.715 h -8.253 c -1.718,0 -3.269,-0.707 -4.391,-1.841 -1.694,1.151 -3.765,1.841 -6.012,1.841 -2.132,0 -4.113,-0.612 -5.755,-1.656 -1.101,1.021 -2.562,1.656 -4.178,1.656 h -8.149 c -3.405,0 -6.171,-2.767 -6.171,-6.172 V 3.296 c -1.476,0.3 -3.009,0.447 -4.608,0.447 -6.527,0 -12.613,-2.555 -17.138,-7.193 -0.588,-0.604 -1.134,-1.233 -1.649,-1.878 -2.475,5.54 -7.768,9.3 -14.059,9.3 -0.325,0 -0.655,-0.01 -0.94,-0.031 -3.05,-0.153 -5.459,-0.922 -7.302,-1.861 -0.761,0.341 -1.605,0.533 -2.493,0.533 h -7.865 c -2.34,0 -4.352,-1.339 -5.38,-3.276 -3.33,2.846 -8.054,4.478 -13.699,4.478 l -0.502,-0.003 c -3.897,-0.059 -8.822,-1.076 -11.097,-1.667 -0.343,-0.085 -0.661,-0.205 -0.966,-0.342 -0.984,0.615 -2.128,0.964 -3.529,0.998 l -0.505,0.003 c -2.572,0 -4.98,-0.693 -7.07,-1.793 -1.076,0.949 -2.49,1.482 -3.965,1.482 -0.108,0 -0.202,-0.003 -0.287,-0.007 h -8.173 c -0.036,0 -0.069,0.004 -0.099,0.004 -1.752,0 -3.402,-0.721 -4.522,-1.978 -1.435,-1.601 -1.548,-3.398 -1.536,-3.986 v -0.197 c -0.066,0.067 -0.124,0.15 -0.196,0.221 -4.526,4.638 -10.612,7.193 -17.132,7.193 -1.605,0 -3.153,-0.154 -4.647,-0.454 v 5.533 c 0.047,1.496 -0.544,3.053 -1.603,4.215 -1.113,1.215 -2.719,1.916 -4.407,1.916 -0.064,0 -0.141,-0.004 -0.221,-0.007 h -8.101 c -0.036,0 -0.069,0.003 -0.098,0.003 -1.745,0 -3.386,-0.717 -4.51,-1.97 -1.359,-1.527 -1.523,-3.228 -1.52,-4 v -29.721 c 0,-12.825 11.022,-23.262 24.568,-23.262 l 0.351,0.003 c 6.963,0.133 13.168,3.046 17.545,7.62 0.038,-1.421 0.598,-2.856 1.585,-3.928 1.12,-1.23 2.739,-1.933 4.437,-1.933 0.061,0 0.136,0.003 0.21,0.003 h 8.286 0.09 c 1.762,0 3.416,0.728 4.529,1.982 1.373,1.533 1.525,3.292 1.528,3.999 v 3.658 c 2.43,-6.667 8.845,-11.199 16.811,-11.199 l 0.413,0.003 c 3.155,0.075 5.774,0.925 7.772,1.95 0.67,-0.253 1.397,-0.393 2.155,-0.393 h 7.302 c 1.141,0 2.2,0.335 3.117,0.881 0.921,-0.546 1.983,-0.881 3.127,-0.881 h 8.2 c 2.702,0 5.001,1.745 5.841,4.163 0.83,-2.418 3.128,-4.163 5.827,-4.163 h 8.088 c 3.271,0 5.932,2.575 6.12,5.807 4.372,-4.546 10.562,-7.436 17.521,-7.569 l 0.321,-0.003 c 6.339,0 12.389,2.333 17.04,6.567 0.362,0.328 0.681,0.68 1.021,1.025 0.181,-3.241 2.852,-5.827 6.141,-5.827 h 8.252 c 1.15,0 2.213,0.338 3.138,0.888 0.922,-0.55 1.988,-0.888 3.139,-0.888 h 8.253 c 1.088,0 2.092,0.308 2.978,0.8 0.89,-0.492 1.898,-0.8 2.981,-0.8 h 8.255 c 3.401,0 6.168,2.767 6.168,6.168 v 31.87 C 1.677,-2.575 1.031,-1.103 0,0"></path></g><g transform="translate(24.9668,15.0518)" id="g24"><path id="path26" style="fill:#e52330;fill-opacity:1;fill-rule:evenodd;stroke:none" d="m 0,0 c -4.893,-0.406 -9.374,2.776 -9.915,7.736 -0.611,5.16 3.528,9.911 8.556,10.052 C 3.327,17.917 7.603,14.321 8.013,9.775 8.485,4.744 4.823,0.468 0,0 m 0.14,28.102 c -3.398,0 -6.455,-0.813 -9.239,-2.579 V 37.87 c 0,0 0.043,0.533 -0.403,1.018 -0.457,0.499 -1.132,0.417 -1.132,0.417 h -8.257 c 0,0 -0.696,0.044 -1.13,-0.437 -0.366,-0.41 -0.352,-0.916 -0.352,-0.916 V 8.211 c 0,-10.66 9.577,-18.802 20.236,-18.666 10.595,0.205 19.352,8.078 19.555,18.803 0.275,11.001 -8.489,19.754 -19.278,19.754"></path></g><g transform="translate(121.6641,43.3589)" id="g28"><path id="path30" style="fill:#e52330;fill-opacity:1;fill-rule:evenodd;stroke:none" d="m 0,0 c -5.109,-0.267 -7.626,-2.654 -8.508,-3.744 v 0.878 c 0,0.847 -0.688,1.527 -1.526,1.527 H -17.9 c -0.837,0 -1.52,-0.68 -1.52,-1.527 v -0.563 -11.257 -8.406 -9.731 -2.589 c 0,-0.874 0.711,-1.588 1.582,-1.588 h 8.2 c 0.871,0 1.579,0.714 1.579,1.588 v 12.32 c 0,0.095 -0.008,0.188 -0.027,0.273 v 6.114 c 0,2.855 0.685,6.793 4.213,6.793 4.348,0 4.348,-5.294 4.348,-6.793 v -6.455 c -0.003,-0.038 -0.01,-0.079 -0.01,-0.116 v -12.159 c 0,-0.86 0.703,-1.565 1.564,-1.565 h 8.088 c 0.859,0 1.561,0.705 1.561,1.565 v 2.612 9.547 11.462 C 11.678,-5.028 6.653,0.41 0,0"></path></g><g transform="translate(67.7075,31.8965)" id="g32"><path id="path34" style="fill:#e52330;fill-opacity:1;fill-rule:evenodd;stroke:none" d="m 0,0 2.596,8.119 c 0,0 0.374,0.898 -0.233,1.595 -0.355,0.41 -0.724,0.584 -1.479,0.601 -0.165,0 -0.336,0.003 -0.505,0.003 -4.143,0 -8.159,-2.859 -9.573,-5.772 v 3.487 h -0.035 v 0.509 c 0,0 0.043,0.543 -0.406,1.039 C -10.1,10.093 -10.783,10 -10.783,10 h -8.384 c 0,0 -0.712,0.048 -1.145,-0.44 -0.375,-0.42 -0.365,-0.926 -0.365,-0.926 V 8.033 -1.229 -19.974 h 0.003 v -4.094 c 0,0 -0.044,-0.543 0.408,-1.038 0.47,-0.513 1.153,-0.431 1.153,-0.431 h 8.433 c 0,0 0.714,-0.041 1.146,0.447 0.379,0.427 0.364,0.94 0.364,0.94 v 9.905 h -0.024 v 3.043 0.666 c 0,0.614 0.136,0.625 0,1.236 0.136,3.392 0.744,6.786 4.411,7.804 0.883,0.273 1.904,0.41 2.443,0.41 0.257,0 0.574,0.034 0.776,0.034 C -0.328,-1.052 0,0 0,0"></path></g><g transform="translate(212.8154,44.189)" id="g36"><path id="path38" style="fill:#e52330;fill-opacity:1;fill-rule:evenodd;stroke:none" d="m 0,0 c 3.139,0 5.693,2.278 5.693,5.082 0,2.811 -2.554,5.085 -5.693,5.085 -3.149,0 -5.7,-2.274 -5.7,-5.085 C -5.7,2.278 -3.149,0 0,0"></path></g><g transform="translate(216.9414,41.3813)" id="g40"><path id="path42" style="fill:#e52330;fill-opacity:1;fill-rule:evenodd;stroke:none" d="m 0,0 h -8.255 c -0.868,0 -1.578,-0.71 -1.578,-1.578 v -31.87 c 0,-0.863 0.71,-1.574 1.578,-1.574 H 0 c 0.864,0 1.574,0.711 1.574,1.574 v 31.87 C 1.574,-0.71 0.864,0 0,0"></path></g><g transform="translate(184.0713,44.189)" id="g44"><path id="path46" style="fill:#e52330;fill-opacity:1;fill-rule:evenodd;stroke:none" d="m 0,0 c 3.142,0 5.693,2.278 5.693,5.082 0,2.811 -2.551,5.085 -5.693,5.085 -3.149,0 -5.7,-2.274 -5.7,-5.085 C -5.7,2.278 -3.149,0 0,0"></path></g><g transform="translate(188.1973,41.3813)" id="g48"><path id="path50" style="fill:#e52330;fill-opacity:1;fill-rule:evenodd;stroke:none" d="m 0,0 h -8.252 c -0.871,0 -1.581,-0.71 -1.581,-1.578 v -31.87 c 0,-0.863 0.71,-1.574 1.581,-1.574 H 0 c 0.863,0 1.574,0.711 1.574,1.574 v 31.87 C 1.574,-0.71 0.863,0 0,0"></path></g><g transform="translate(165.2588,22.7881)" id="g52"><path id="path54" style="fill:#e52330;fill-opacity:1;fill-rule:evenodd;stroke:none" d="m 0,0 c -0.543,-4.96 -5.025,-8.143 -9.913,-7.736 -4.821,0.467 -8.491,4.744 -8.015,9.775 0.406,4.546 4.69,8.142 9.372,8.012 C -3.528,9.911 0.611,5.16 0,0 M 8.88,31.568 H 0.73 c -0.867,0 -1.574,-0.71 -1.574,-1.578 V 17.804 c -2.844,1.749 -5.819,2.562 -9.204,2.562 -10.795,0 -19.556,-8.754 -19.284,-19.755 0.202,-10.724 8.959,-18.597 19.554,-18.802 10.663,-0.136 20.234,8.005 20.234,18.666 v 17.261 9.662 2.592 c 0,0.868 -0.708,1.578 -1.576,1.578"></path></g><g transform="translate(202.7275,54.3564)" id="g56"><path id="path58" style="fill:#e52330;fill-opacity:1;fill-rule:evenodd;stroke:none" d="m 0,0 h -8.253 c -0.871,0 -1.578,-0.71 -1.578,-1.578 v -44.845 c 0,-0.863 0.707,-1.574 1.578,-1.574 H 0 c 0.873,0 1.582,0.711 1.582,1.574 V -1.578 C 1.582,-0.71 0.873,0 0,0"></path></g><g transform="translate(82.7437,12.6611)" id="g60"><path id="path62" style="fill:#e52330;fill-opacity:1;fill-rule:evenodd;stroke:none" d="m 0,0 c -3.096,0 -5.603,2.169 -5.603,4.84 0,2.678 2.507,4.843 5.603,4.843 3.096,0 5.606,-2.165 5.606,-4.843 C 5.606,2.169 3.096,0 0,0 m 1.505,30.561 c -3.364,-0.048 -7.958,-0.987 -10.031,-1.523 -0.96,-0.243 -1.443,-1.391 -1.443,-1.391 l -1.959,-6.359 c 0,0 -0.427,-1.141 0.157,-1.581 0.053,-0.041 0.475,-0.547 1.508,-0.157 2.437,0.925 6.132,2.049 8.441,2.049 4.819,0.14 6.452,-1.421 7.126,-3.873 0.412,-1.288 0.412,-3.388 0.412,-3.46 -0.137,0 -2.582,2.65 -7.743,2.923 -7.876,0.267 -14.055,-5.16 -14.055,-12.428 0,-7.804 6.179,-12.76 13.581,-12.62 5.099,0.123 8.23,3.009 8.526,3.412 v -0.345 c 0,-0.826 0.682,-1.51 1.511,-1.51 h 7.302 c 0.834,0 1.512,0.684 1.512,1.51 v 1.274 h 0.027 v 22.2 c 0,8.559 -7.266,12.016 -14.872,11.879"></path></g></g></g></g></svg>