<svg xmlns="http://www.w3.org/2000/svg" width="15.696" height="24.109" viewBox="0 0 15.696 24.109"><g transform="translate(-89.326 0)"><g transform="translate(94.281 12.499)"><path fill="#fff" d="M196.387,265.452h-1.422a.416.416,0,1,0,0,.832h1.422a.416.416,0,0,0,0-.832Z" transform="translate(-194.549 -265.452)"></path></g><g transform="translate(89.326 0)"><g transform="translate(0 0)"><path fill="#fff" d="M104.607,1.207H98.471V.416a.416.416,0,0,0-.523-.4L89.635,2.231a.416.416,0,0,0-.309.4V3.976a.416.416,0,1,0,.832,0V2.952l7.481-2V23.185l-7.481-1.5V5.378a.416.416,0,1,0-.832,0V22.03a.416.416,0,0,0,.334.408L97.973,24.1a.416.416,0,0,0,.5-.408V22.9H102.3a.416.416,0,0,0,0-.832H98.471V20.883h4.117a.416.416,0,0,0,.416-.416V3.642a.416.416,0,0,0-.416-.416H98.471V2.039h5.72v20.03H103.6a.416.416,0,1,0,0,.832h1.009a.416.416,0,0,0,.416-.416V1.623A.416.416,0,0,0,104.607,1.207Zm-2.435,2.85V20.051h-3.7V4.058Z" transform="translate(-89.326 0)"></path></g></g></g></svg>