<svg xmlns="http://www.w3.org/2000/svg" width="26.087" height="20" viewBox="0 0 26.087 20">
    <defs>
      <style>.a{fill:#fff;}</style>
    </defs>
    <g transform="translate(-16 -72)">
      <path class="a" d="M41.977,89.246a.435.435,0,0,0,.107-.339l-1.3-11.3a.435.435,0,0,0-.432-.385H38.174v-.87a2.609,2.609,0,0,0-5.217,0h-.87v-1.3a3.043,3.043,0,1,0-6.087,0v1.3h-.87a2.609,2.609,0,0,0-5.217,0v.87H17.739a.435.435,0,0,0-.432.385L16,88.907a.435.435,0,0,0,.432.485H21.8l-.2,2.134a.435.435,0,0,0,.433.475H36a.435.435,0,0,0,.433-.473l-.189-2.136h5.408a.435.435,0,0,0,.325-.146ZM35.565,74.609A1.741,1.741,0,0,1,37.3,76.348v.87H35.171l-.042-.473a.435.435,0,0,0-.433-.4h-.87A1.741,1.741,0,0,1,35.565,74.609Zm-8.7.435a2.174,2.174,0,0,1,4.348,0v1.3H26.87Zm-6.087,1.3a1.739,1.739,0,0,1,3.478,0h-.87a.435.435,0,0,0-.433.4l-.043.475H20.783Zm-3.86,12.174,1.2-10.435h1.786v.87a.435.435,0,1,0,.87,0v-.87h2.052l-.959,10.435Zm5.587,2.609,1.279-13.913H26v1.739a.435.435,0,1,0,.87,0V77.217h4.348v1.739a.435.435,0,1,0,.87,0V77.217H34.3L35.525,91.13Zm13.659-2.609-.921-10.435H37.3v.87a.435.435,0,1,0,.87,0v-.87h1.786l1.2,10.435Z"></path>
      <circle class="a" cx="0.445" cy="0.445" r="0.445" transform="translate(26.079 80.3)"></circle>
      <circle class="a" cx="0.445" cy="0.445" r="0.445" transform="translate(19.854 80.3)"></circle>
      <circle class="a" cx="0.445" cy="0.445" r="0.445" transform="translate(31.119 80.3)"></circle>
      <circle class="a" cx="0.445" cy="0.445" r="0.445" transform="translate(37.344 80.3)"></circle>
    </g>
  </svg>