<svg xmlns="http://www.w3.org/2000/svg" width="45.065" height="30.982" viewBox="0 0 45.065 30.982">
    <g transform="translate(0 0)">
      <path fill="#052230" d="M43.149,82.986c-1.222-2.174-2.549-2.574-5.25-2.726C35.2,80.076,28.416,80,22.538,80s-12.677.076-15.373.256c-2.7.155-4.025.552-5.258,2.729C.648,85.157,0,88.9,0,95.482v.023c0,6.557.648,10.325,1.907,12.474,1.234,2.174,2.56,2.569,5.256,2.752,2.7.158,9.486.251,15.375.251s12.663-.093,15.364-.248c2.7-.183,4.028-.577,5.25-2.752,1.27-2.149,1.912-5.918,1.912-12.474v-.023C45.065,88.9,44.422,85.157,43.149,82.986ZM16.9,103.941v-16.9l14.083,8.45Z" transform="translate(0 -80)"></path>
    </g>
  </svg>