<svg xmlns="http://www.w3.org/2000/svg" width="30.385" height="30.385" viewBox="0 0 30.385 30.385">
    <path fill="#052230" fill-rule="evenodd" d="M15.192,2.7a46.583,46.583,0,0,1,6.077.169,7.829,7.829,0,0,1,2.87.506,5.928,5.928,0,0,1,2.87,2.87,7.829,7.829,0,0,1,.506,2.87c0,1.519.169,2.026.169,6.077a46.581,46.581,0,0,1-.169,6.077,7.83,7.83,0,0,1-.506,2.87,5.928,5.928,0,0,1-2.87,2.87,7.829,7.829,0,0,1-2.87.506c-1.519,0-2.026.169-6.077.169a46.581,46.581,0,0,1-6.077-.169,7.829,7.829,0,0,1-2.87-.506,5.928,5.928,0,0,1-2.87-2.87,7.829,7.829,0,0,1-.506-2.87c0-1.519-.169-2.026-.169-6.077A46.583,46.583,0,0,1,2.87,9.115a7.829,7.829,0,0,1,.506-2.87A6.063,6.063,0,0,1,4.558,4.558,2.854,2.854,0,0,1,6.246,3.376a7.829,7.829,0,0,1,2.87-.506A46.583,46.583,0,0,1,15.192,2.7m0-2.7A49.877,49.877,0,0,0,8.947.169,10.421,10.421,0,0,0,5.233.844a6.608,6.608,0,0,0-2.7,1.688,6.608,6.608,0,0,0-1.688,2.7A7.691,7.691,0,0,0,.169,8.947,49.877,49.877,0,0,0,0,15.192a49.877,49.877,0,0,0,.169,6.246,10.421,10.421,0,0,0,.675,3.714,6.608,6.608,0,0,0,1.688,2.7,6.608,6.608,0,0,0,2.7,1.688,10.421,10.421,0,0,0,3.714.675,49.878,49.878,0,0,0,6.246.169,49.878,49.878,0,0,0,6.246-.169,10.421,10.421,0,0,0,3.714-.675,7.082,7.082,0,0,0,4.389-4.389,10.421,10.421,0,0,0,.675-3.714c0-1.688.169-2.194.169-6.246a49.878,49.878,0,0,0-.169-6.246,10.421,10.421,0,0,0-.675-3.714,6.608,6.608,0,0,0-1.688-2.7,6.608,6.608,0,0,0-2.7-1.688A10.421,10.421,0,0,0,21.438.169,49.877,49.877,0,0,0,15.192,0m0,7.427a7.64,7.64,0,0,0-7.765,7.765,7.765,7.765,0,1,0,7.765-7.765m0,12.829a4.974,4.974,0,0,1-5.064-5.064,4.974,4.974,0,0,1,5.064-5.064,4.974,4.974,0,0,1,5.064,5.064,4.974,4.974,0,0,1-5.064,5.064M23.3,5.233A1.857,1.857,0,1,0,25.152,7.09,1.873,1.873,0,0,0,23.3,5.233"></path>
  </svg>