<svg xmlns="http://www.w3.org/2000/svg" width="57.696" height="20" viewBox="0 0 57.696 20">
    <g transform="translate(-194.248 -186.14)">
      <path fill="#f36" d="M215.888,186.14H198.42a1.8,1.8,0,0,0-1.588,2.637l1.747,3.309h-3.168a1.165,1.165,0,0,0-1.03,1.708L200,204.43a1.165,1.165,0,0,0,2.059,0l1.526-2.873,1.915,3.625a1.8,1.8,0,0,0,3.176,0l8.755-16.476A1.75,1.75,0,0,0,215.888,186.14Zm-7.847,7.039-3.775,7.106a.775.775,0,0,1-1.37,0l-3.739-7.076a.775.775,0,0,1,.683-1.138h7.535a.754.754,0,0,1,.666,1.108Z" transform="translate(0 0)"></path>
      <path fill="#f36" d="M933.3,317.411h-1.911v6.549a.226.226,0,0,1-.225.225h-1.474a.226.226,0,0,1-.225-.225v-6.549h-1.922a.216.216,0,0,1-.225-.214v-1.158a.216.216,0,0,1,.225-.214H933.3a.226.226,0,0,1,.236.214V317.2A.226.226,0,0,1,933.3,317.411Z" transform="translate(-698.834 -123.628)"></path>
      <path fill="#f36" d="M1084.584,322.036a14.759,14.759,0,0,1-2.271.146c-1.451,0-2.733-.371-2.733-2.418v-3.736c0-2.047,1.294-2.407,2.745-2.407a14.574,14.574,0,0,1,2.26.146c.157.022.225.079.225.225v1.048a.226.226,0,0,1-.225.225h-2.372c-.529,0-.72.18-.72.765v1.024h3a.226.226,0,0,1,.225.225v1.069a.226.226,0,0,1-.225.225h-3v1.192c0,.585.191.765.72.765h2.372a.226.226,0,0,1,.225.225V321.8C1084.809,321.946,1084.741,322.013,1084.584,322.036Z" transform="translate(-843.982 -121.526)"></path>
      <path fill="#f36" d="M1221.985,324.165H1220.2a.3.3,0,0,1-.292-.169l-1.551-2.462-1.4,2.408c-.079.135-.157.225-.28.225H1215a.149.149,0,0,1-.169-.146.208.208,0,0,1,.023-.079l2.437-4.063-2.462-3.858a.159.159,0,0,1-.022-.068.162.162,0,0,1,.169-.146h1.811c.124,0,.214.113.28.214l1.439,2.272,1.393-2.272a.365.365,0,0,1,.28-.214h1.664a.162.162,0,0,1,.169.146.158.158,0,0,1-.022.068l-2.45,3.882,2.555,4.04a.251.251,0,0,1,.034.113C1222.131,324.12,1222.075,324.165,1221.985,324.165Z" transform="translate(-972.896 -123.61)"></path>
      <path fill="#f36" d="M753.2,316.281a.174.174,0,0,0-.17.14l-1.633,6.043c-.022.124-.056.169-.157.169s-.135-.047-.157-.169l-1.635-6.045a.174.174,0,0,0-.17-.14h-1.607a.174.174,0,0,0-.169.213s1.994,6.931,2.016,7a1.693,1.693,0,0,0,1.734,1.22,1.745,1.745,0,0,0,1.733-1.218c.032-.093,1.982-7,1.982-7a.174.174,0,0,0-.169-.213Z" transform="translate(-527.407 -124.062)"></path>
      <path fill="#f36" d="M215.888,186.14H198.42a1.8,1.8,0,0,0-1.588,2.637l1.747,3.309h-3.168a1.165,1.165,0,0,0-1.03,1.708L200,204.43a1.165,1.165,0,0,0,2.059,0l1.526-2.873,1.915,3.625a1.8,1.8,0,0,0,3.176,0l8.755-16.476A1.75,1.75,0,0,0,215.888,186.14Zm-7.847,7.039-3.775,7.106a.775.775,0,0,1-1.37,0l-3.739-7.076a.775.775,0,0,1,.683-1.138h7.535a.754.754,0,0,1,.666,1.108Z" transform="translate(0 0)"></path>
      <path fill="#f36" d="M1390.649,315.76v1.406a.047.047,0,0,1-.047.047h-.089a.047.047,0,0,1-.047-.047V315.76h-.254a.047.047,0,0,1-.047-.047v-.06a.043.043,0,0,1,.047-.047h.694a.043.043,0,0,1,.047.047v.06a.047.047,0,0,1-.047.047Z" transform="translate(-1140.062 -123.419)"></path>
      <path fill="#f36" d="M1411.241,316.847a.047.047,0,0,1-.051-.047l-.147-.905h-.011l.015.313v.919a.047.047,0,0,1-.047.047h-.078a.047.047,0,0,1-.047-.047v-1.515a.043.043,0,0,1,.047-.047h.162c.031,0,.047.014.052.047l.113.641.056.38h.013l.056-.38.111-.641c.007-.033.022-.047.053-.047h.162a.043.043,0,0,1,.047.047v1.515a.047.047,0,0,1-.047.047h-.078a.047.047,0,0,1-.047-.047v-.914l.015-.313h-.011l-.147.905a.047.047,0,0,1-.052.047Z" transform="translate(-1159.805 -123.381)"></path>
    </g>
  </svg>