<svg xmlns="http://www.w3.org/2000/svg" width="39" height="30.288" viewBox="0 0 39 30.288">
    <g transform="translate(-0.391 -0.311)">
      <g transform="translate(21.612 0.311)">
        <path fill="#ffa400" d="M40.832,38.366H38.577V37.2a1.685,1.685,0,0,0-3.371,0v1.163H32.951V37.2a3.94,3.94,0,0,1,7.881,0Z" transform="translate(-27.99 -28.23)"></path>
        <path fill="#003a70" d="M32.408,66.68H22.675a.75.75,0,0,0-.76.76v7.192a.75.75,0,0,0,.76.76h9.732a.75.75,0,0,0,.76-.76V67.44A.781.781,0,0,0,32.408,66.68ZM28.016,71.4v.973a.5.5,0,0,1-1,0V71.4a.979.979,0,0,1-.5-.878,1,1,0,0,1,1.994,0A.936.936,0,0,1,28.016,71.4Z" transform="translate(-18.64 -56.544)"></path>
        <path fill="#ffa400" d="M3.5,52.047H1.155a.688.688,0,1,1,0-1.377H3.5a.688.688,0,1,1,0,1.377Z" transform="translate(-0.466 -42.98)"></path>
        <path fill="#ffa400" d="M17.229,19.319a.609.609,0,0,1-.427-.166L14.95,17.633a.691.691,0,1,1,.878-1.068l1.851,1.519a.7.7,0,0,1,.095.973A.79.79,0,0,1,17.229,19.319Z" transform="translate(-12.529 -13.954)"></path>
        <path fill="#ffa400" d="M54.934,4.061a.689.689,0,0,1-.688-.688V1a.688.688,0,1,1,1.377,0V3.373A.689.689,0,0,1,54.934,4.061Z" transform="translate(-46.032 -0.311)"></path>
        <path fill="#ffa400" d="M82.368,19.319a.663.663,0,0,1-.522-.261.706.706,0,0,1,.095-.973l1.851-1.519a.691.691,0,1,1,.878,1.068l-1.851,1.519A.666.666,0,0,1,82.368,19.319Z" transform="translate(-69.289 -13.954)"></path>
        <path fill="#ffa400" d="M95.388,52.047H93.014a.688.688,0,1,1,0-1.377h2.374a.688.688,0,1,1,0,1.377Z" transform="translate(-78.298 -42.98)"></path>
      </g>
      <path fill="#003a70" d="M.391,79.774V72.107H2.242V78.16H5.21v1.614Zm10.943-2.635v.427H7.417a1.169,1.169,0,0,0,.142.4.889.889,0,0,0,.285.309,1.32,1.32,0,0,0,.4.214,1.491,1.491,0,0,0,.451.071,1.439,1.439,0,0,0,1.187-.57l1.234.783a2.667,2.667,0,0,1-1,.855,3.424,3.424,0,0,1-1.448.309,3.584,3.584,0,0,1-1.139-.19,2.915,2.915,0,0,1-.949-.546,2.78,2.78,0,0,1-.878-2.113A2.72,2.72,0,0,1,5.945,75.9a2.443,2.443,0,0,1,.617-.9,2.639,2.639,0,0,1,.926-.57,3.039,3.039,0,0,1,1.139-.214,3.191,3.191,0,0,1,1.092.19,2.694,2.694,0,0,1,.855.57,2.587,2.587,0,0,1,.546.926A3.457,3.457,0,0,1,11.334,77.139ZM9.7,76.475a1.16,1.16,0,0,0-.261-.736.974.974,0,0,0-.807-.309,1.531,1.531,0,0,0-.475.071,1.2,1.2,0,0,0-.38.214,1.154,1.154,0,0,0-.261.332,1.138,1.138,0,0,0-.119.4H9.7Zm4.486-.76V77.78a.913.913,0,0,0,.142.57.63.63,0,0,0,.522.19,1.156,1.156,0,0,0,.285-.024,1.474,1.474,0,0,0,.237-.071l.024,1.306a4.573,4.573,0,0,1-.475.119,4.61,4.61,0,0,1-.57.047,2.479,2.479,0,0,1-.9-.142,1.507,1.507,0,0,1-.593-.38,1.38,1.38,0,0,1-.309-.617,3.931,3.931,0,0,1-.095-.783V75.715h-.878V74.386h.855V72.962h1.757v1.424H15.44v1.329Zm2.9-3.75a.909.909,0,0,0-.949.878.816.816,0,0,0,.878.855.178.178,0,0,0,.119-.024.994.994,0,0,1-.807.712h-.071v.831h.095a2.024,2.024,0,0,0,1.139-.522A2.164,2.164,0,0,0,18.1,73.08,1.038,1.038,0,0,0,17.078,71.965Zm4.107,4.012a1.9,1.9,0,0,0-.5-.356,1.385,1.385,0,0,0-.617-.142.963.963,0,0,0-.451.095.336.336,0,0,0-.214.332.347.347,0,0,0,.237.332,3.925,3.925,0,0,0,.76.214,3.071,3.071,0,0,1,.617.19,2.982,2.982,0,0,1,.546.309,1.308,1.308,0,0,1,.4.475,1.445,1.445,0,0,1,.142.665,1.631,1.631,0,0,1-.214.855,1.571,1.571,0,0,1-.546.57,2.541,2.541,0,0,1-.736.309,3.307,3.307,0,0,1-.831.095A3.823,3.823,0,0,1,18.5,79.7a2.656,2.656,0,0,1-1.044-.617l1-1.044a2.237,2.237,0,0,0,.593.427,1.59,1.59,0,0,0,.736.166.931.931,0,0,0,.427-.095.368.368,0,0,0,.214-.356.432.432,0,0,0-.261-.38,4.3,4.3,0,0,0-.807-.237,5.156,5.156,0,0,1-.57-.166,1.707,1.707,0,0,1-.5-.285,1.663,1.663,0,0,1-.356-.451,1.413,1.413,0,0,1-.142-.641A1.545,1.545,0,0,1,18,75.193a1.646,1.646,0,0,1,.522-.546,1.914,1.914,0,0,1,.712-.309,2.949,2.949,0,0,1,.783-.095,4,4,0,0,1,1.187.19,2.351,2.351,0,0,1,.973.57ZM.391,88.652V80.985H5.542v1.567H2.171V84H5.352v1.472H2.171v1.59H5.732v1.59Zm10.017,0V85.708a2.616,2.616,0,0,0-.047-.427,1.251,1.251,0,0,0-.119-.356A.572.572,0,0,0,10,84.688a.679.679,0,0,0-.4-.095.813.813,0,0,0-.427.095,1.065,1.065,0,0,0-.309.261,1.893,1.893,0,0,0-.19.38,1.344,1.344,0,0,0-.071.427v2.92H6.824V83.287H8.533v.736h.024a1.154,1.154,0,0,1,.261-.332,1.345,1.345,0,0,1,.356-.285,2.574,2.574,0,0,1,.451-.19,1.852,1.852,0,0,1,.522-.071,2.218,2.218,0,0,1,.926.19,1.844,1.844,0,0,1,.617.5,1.96,1.96,0,0,1,.332.712,3.008,3.008,0,0,1,.095.807v3.323H10.408ZM16.77,85a1.076,1.076,0,0,0-.4-.309,1.389,1.389,0,0,0-.522-.119,1.1,1.1,0,0,0-.5.119.953.953,0,0,0-.38.309,2.567,2.567,0,0,0-.261.427,1.484,1.484,0,0,0,0,1.044.993.993,0,0,0,.261.427,1.225,1.225,0,0,0,.926.427,1.472,1.472,0,0,0,.546-.095,1.1,1.1,0,0,0,.427-.309l.973,1.211a2.323,2.323,0,0,1-.855.5,3.551,3.551,0,0,1-1.116.19,3.769,3.769,0,0,1-1.187-.19,2.513,2.513,0,0,1-.973-.57,2.78,2.78,0,0,1-.878-2.113,2.72,2.72,0,0,1,.237-1.187,2.818,2.818,0,0,1,.641-.9,2.639,2.639,0,0,1,.973-.57,3.278,3.278,0,0,1,1.187-.19,4.611,4.611,0,0,1,.57.047c.19.047.38.095.546.142a4.742,4.742,0,0,1,.5.237,1.658,1.658,0,0,1,.38.309Zm5.175-.261a.843.843,0,0,0-.237-.047h-.214a1.466,1.466,0,0,0-.593.119,1.268,1.268,0,0,0-.38.309,1.32,1.32,0,0,0-.214.4,1.18,1.18,0,0,0-.071.38v2.753h-1.78V83.263h1.709v.783h.024a1.61,1.61,0,0,1,.593-.665,1.592,1.592,0,0,1,.878-.261h.214c.071,0,.119.024.166.024Zm4.178,4.724c-.119.285-.237.522-.356.76a2.754,2.754,0,0,1-.475.57,2.116,2.116,0,0,1-.641.356,3.143,3.143,0,0,1-.878.119,4.023,4.023,0,0,1-.522-.024,2.141,2.141,0,0,1-.451-.095l.19-1.5.285.071a1.155,1.155,0,0,0,.285.024.806.806,0,0,0,.593-.19,1.322,1.322,0,0,0,.309-.546l.166-.451-2.255-5.293h1.97l1.211,3.466h.024l1.068-3.466h1.875ZM35,85.946a3.386,3.386,0,0,1-.166,1.092,3.161,3.161,0,0,1-.5.926,2.679,2.679,0,0,1-.807.641,2.311,2.311,0,0,1-1.092.237,2.6,2.6,0,0,1-.949-.19,1.763,1.763,0,0,1-.688-.546h-.024v3.2h-1.78V83.335h1.685V84H30.7a2.386,2.386,0,0,1,.688-.57,2.06,2.06,0,0,1,1.044-.237,2.346,2.346,0,0,1,1.068.237,2.293,2.293,0,0,1,.807.617,3.033,3.033,0,0,1,.5.9A2.488,2.488,0,0,1,35,85.946Zm-1.733,0a1.807,1.807,0,0,0-.071-.5,1.245,1.245,0,0,0-.237-.427,1.076,1.076,0,0,0-.4-.309,1.315,1.315,0,0,0-1.092,0,1.3,1.3,0,0,0-.4.309,1.407,1.407,0,0,0-.261.451,1.356,1.356,0,0,0,0,1,1.718,1.718,0,0,0,.261.451,1.3,1.3,0,0,0,.4.309,1.319,1.319,0,0,0,.546.119,1.238,1.238,0,0,0,.546-.119,1.3,1.3,0,0,0,.4-.309,1.361,1.361,0,0,0,.237-.451A2.117,2.117,0,0,0,33.267,85.946Zm4.558-1.353v2.065a.913.913,0,0,0,.142.57.63.63,0,0,0,.522.19,1.155,1.155,0,0,0,.285-.024,1.475,1.475,0,0,0,.237-.071l.024,1.306a3.282,3.282,0,0,1-1.044.166,2.479,2.479,0,0,1-.9-.142,1.507,1.507,0,0,1-.593-.38,1.38,1.38,0,0,1-.309-.617,3.931,3.931,0,0,1-.095-.783V84.593h-.855V83.263h.855V81.839h1.733v1.424h1.258v1.329Z" transform="translate(0 -60.711)"></path>
    </g>
  </svg>